<?xml version="1.0" encoding="iso-8859-1"?>
<!DOCTYPE svg PUBLIC "-//W3C//DTD SVG 1.1//EN" "http://www.w3.org/Graphics/SVG/1.1/DTD/svg11.dtd">
<svg version="1.1" id="icon-ellipsis-vertical" xmlns="http://www.w3.org/2000/svg" xmlns:xlink="http://www.w3.org/1999/xlink" viewBox="0 0 24 24">
  <path d="M12 7a2 2 0 1 0 0-4a2 2 0 0 0 0 4zm0-3a1 1 0 1 1-.001 2.001A1 1 0 0 1 12 4zm0 6a2 2 0 1 0 0 4a2 2 0 0 0 0-4zm0 3a1 1 0 1 1 0-2a1 1 0 0 1 0 2zm0 4a2 2 0 1 0 0 4a2 2 0 0 0 0-4zm0 3a1 1 0 1 1 0-2a1 1 0 0 1 0 2z" />
</svg>
