<?xml version="1.0" encoding="iso-8859-1"?>
<!DOCTYPE svg PUBLIC "-//W3C//DTD SVG 1.1//EN" "http://www.w3.org/Graphics/SVG/1.1/DTD/svg11.dtd">
<svg version="1.1" id="icon-folder" xmlns="http://www.w3.org/2000/svg" xmlns:xlink="http://www.w3.org/1999/xlink" viewBox="0 0 24 24">
  <path fill-rule="evenodd" d="M4 20a2 2 0 0 1-2-2V7a2 2 0 0 1 2-2h4.586A2 2 0 0 1 10 5.586L11.914 7.5H20a2 2 0 0 1 2 2V18a2 2 0 0 1-2 2H4zM4 7v11h16V9.5h-8.086a2 2 0 0 1-1.414-.586L8.586 7H4z" clip-rule="evenodd"/>
</svg>
