<?xml version="1.0" encoding="iso-8859-1"?>
<!DOCTYPE svg PUBLIC "-//W3C//DTD SVG 1.1//EN" "http://www.w3.org/Graphics/SVG/1.1/DTD/svg11.dtd">
<svg version="1.1" id="icon-list" xmlns="http://www.w3.org/2000/svg" xmlns:xlink="http://www.w3.org/1999/xlink" viewBox="0 0 24 24"
  clip-rule="evenodd" fill-rule="evenodd" stroke-linejoin="round" stroke-miterlimit="2">
  <path d="m22 16.75c0-.414-.336-.75-.75-.75h-18.5c-.414 0-.75.336-.75.75s.336.75.75.75h18.5c.414 0 .75-.336.75-.75zm0-5c0-.414-.336-.75-.75-.75h-18.5c-.414 0-.75.336-.75.75s.336.75.75.75h18.5c.414 0 .75-.336.75-.75zm0-5c0-.414-.336-.75-.75-.75h-18.5c-.414 0-.75.336-.75.75s.336.75.75.75h18.5c.414 0 .75-.336.75-.75z" fill-rule="nonzero" />
</svg>
