<?xml version="1.0" encoding="iso-8859-1"?>
<!DOCTYPE svg PUBLIC "-//W3C//DTD SVG 1.1//EN" "http://www.w3.org/Graphics/SVG/1.1/DTD/svg11.dtd">
<svg version="1.1" id="icon-minimize" xmlns="http://www.w3.org/2000/svg" xmlns:xlink="http://www.w3.org/1999/xlink" viewBox="0 0 24 24">
  <path fill-rule="evenodd" d="M19.293 3.293a1 1 0 1 1 1.414 1.414L16.414 9H18.5a1 1 0 1 1 0 2H14a1 1 0 0 1-1-1V5.5a1 1 0 1 1 2 0v2.086l4.293-4.293zM4.707 20.707a1 1 0 0 1-1.414-1.414L7.586 15H5.5a1 1 0 1 1 0-2H10a1 1 0 0 1 1 1v4.5a1 1 0 1 1-2 0v-2.086l-4.293 4.293z" clip-rule="evenodd" />
</svg>
