<?xml version="1.0" encoding="iso-8859-1"?>
<!DOCTYPE svg PUBLIC "-//W3C//DTD SVG 1.1//EN" "http://www.w3.org/Graphics/SVG/1.1/DTD/svg11.dtd">
<svg version="1.0" id="icon-user-avatar" xmlns="http://www.w3.org/2000/svg" xmlns:xlink="http://www.w3.org/1999/xlink" width="300" height="324" viewBox="0 0 300 324">
 <g transform="translate(0.000000,324.000000) scale(0.100000,-0.100000)" fill="#586069" stroke="none">
     <path d="M1706 3180 c-22 -11 -43 -26 -48 -33 -4 -6 -8 -8 -8 -3 0 5 -9 1 -20 -9 -12 -11 -27 -20 -35 -21 -15 -2 -28 23 -19 38 3 5 -3 4 -15 -4 -12 -7 -21 -17 -21 -22 0 -6 -7 -1 -15 10 -8 10 -15 14 -15 8 0 -5 -6 -19 -14 -29 -13 -18 -16 -17 -63 17 -27 19 -60 41 -74 48 l-24 13 20 -22 c19 -22 19 -23 0 -37 -10 -8 -27 -14 -38 -14 -10 0 -15 -4 -12 -10 9 -14 -55 -12 -137 4 -57 11 -66 11 -57 -1 9 -10 2 -13 -37 -13 -27 -1 -60 -7 -74 -15 -14 -8 -20 -15 -15 -15 6 0 3 -5 -5 -10 -12 -8 -10 -10 10 -10 18 0 -1 -14 -63 -45 -116 -59 -146 -83 -211 -168 -64 -85 -86 -127 -86 -162 0 -14 -11 -67 -25 -116 -14 -50 -23 -99 -20 -109 3 -10 7 -27 9 -37 2 -10 6 -35 10 -55 4 -21 11 -38 15 -38 5 0 11 -19 15 -42 4 -24 15 -70 25 -103 11 -33 29 -94 41 -135 12 -41 26 -87 32 -102 9 -24 7 -30 -18 -52 -43 -36 -39 -102 13 -231 22 -55 43 -122 47 -150 3 -27 15 -61 25 -75 10 -14 22 -46 26 -70 12 -82 54 -230 81 -285 14 -30 49 -88 79 -129 l53 -74 -84 -41 c-96 -46 -141 -60 -420 -130 -212 -53 -375 -99 -383 -107 -7 -7 74 -87 159 -159 412 -344 984 -498 1510 -406 387 68 760 257 1004 510 l39 40 -29 12 c-16 6 -76 28 -134 49 -150 55 -207 79 -485 210 -49 23 -109 50 -131 60 -23 10 -45 23 -48 29 -4 6 6 30 22 53 68 99 111 214 137 368 9 47 19 86 24 88 30 10 45 36 61 108 10 43 32 123 49 178 37 118 39 163 10 201 -18 22 -27 26 -52 21 -24 -5 -28 -3 -23 10 4 9 13 49 22 88 9 39 29 98 44 131 15 33 38 102 50 154 24 100 22 159 -5 225 -8 19 -15 46 -15 60 0 69 -186 335 -262 374 -24 12 -50 26 -58 31 -8 5 -24 12 -35 16 -16 5 -17 8 -5 15 11 7 6 10 -18 10 -18 0 -31 4 -28 8 9 14 -55 29 -107 25 -26 -2 -47 0 -47 5 0 4 16 25 35 46 19 21 35 40 35 43 0 8 -43 -20 -78 -51 -38 -33 -44 -35 -75 -21 -17 7 -15 11 14 41 37 39 31 42 -25 14z m-49 -665 c62 -19 134 -80 163 -141 17 -34 22 -63 22 -120 0 -67 -4 -84 -35 -147 -20 -40 -70 -115 -112 -167 -89 -113 -115 -173 -115 -270 l0 -70 -74 0 -73 0 -6 48 c-12 112 30 224 133 352 112 138 141 242 91 323 -46 75 -170 94 -287 46 l-60 -25 -22 54 c-12 30 -19 59 -16 64 7 11 68 38 124 54 62 18 205 17 267 -1z m-113 -1069 c46 -19 66 -51 66 -108 0 -39 -6 -54 -29 -80 -26 -29 -35 -33 -81 -33 -46 0 -55 4 -81 33 -51 57 -33 158 34 187 41 18 50 18 91 1z" />
  </g>
</svg>
