<?xml version="1.0" encoding="iso-8859-1"?>
<!DOCTYPE svg PUBLIC "-//W3C//DTD SVG 1.1//EN" "http://www.w3.org/Graphics/SVG/1.1/DTD/svg11.dtd">
<svg version="1.1" id="icon-stats" xmlns="http://www.w3.org/2000/svg" xmlns:xlink="http://www.w3.org/1999/xlink" viewBox="0 0 24 24"
  clip-rule="evenodd" fill-rule="evenodd" stroke-linejoin="round" stroke-miterlimit="2">
  <path d="M6,13H2a1,1,0,0,0-1,1v8a1,1,0,0,0,1,1H6a1,1,0,0,0,1-1V14A1,1,0,0,0,6,13ZM5,21H3V15H5ZM22,9H18a1,1,0,0,0-1,1V22a1,1,0,0,0,1,1h4a1,1,0,0,0,1-1V10A1,1,0,0,0,22,9ZM21,21H19V11h2ZM14,1H10A1,1,0,0,0,9,2V22a1,1,0,0,0,1,1h4a1,1,0,0,0,1-1V2A1,1,0,0,0,14,1ZM13,21H11V3h2Z" />
</svg>
