<?xml version="1.0" encoding="iso-8859-1"?>
<!DOCTYPE svg PUBLIC "-//W3C//DTD SVG 1.1//EN" "http://www.w3.org/Graphics/SVG/1.1/DTD/svg11.dtd">
<svg version="1.1" id="icon-sun" xmlns="http://www.w3.org/2000/svg" xmlns:xlink="http://www.w3.org/1999/xlink" viewBox="0 0 24 24">
  <path d="M12 2a1 1 0 0 1 1 1v2a1 1 0 1 1-2 0V3a1 1 0 0 1 1-1Zm7.121 4.293a1 1 0 0 0-1.414-1.414l-1.414 1.414a1 1 0 0 0 1.414 1.414l1.414-1.414ZM4.878 4.879a1 1 0 0 1 1.415 0l1.414 1.414a1 1 0 0 1-1.414 1.414L4.878 6.293a1 1 0 0 1 0-1.414Z" />
  <path fill-rule="evenodd" d="M7 12a5 5 0 1 1 10 0 5 5 0 0 1-10 0Zm5-3a3 3 0 1 0 0 6 3 3 0 0 0 0-6Z" clip-rule="evenodd" />
  <path d="m17.707 16.293 1.414 1.414a1 1 0 0 1-1.414 1.414l-1.414-1.414a1 1 0 0 1 1.414-1.414ZM6.293 19.121l1.414-1.414a1 1 0 1 0-1.414-1.414l-1.414 1.414a1 1 0 1 0 1.414 1.414ZM13 19a1 1 0 1 0-2 0v2a1 1 0 1 0 2 0v-2ZM2 12a1 1 0 0 1 1-1h2a1 1 0 1 1 0 2H3a1 1 0 0 1-1-1Zm17-1a1 1 0 1 0 0 2h2a1 1 0 1 0 0-2h-2Z" />
</svg>
