<?xml version="1.0" encoding="iso-8859-1"?>
<!DOCTYPE svg PUBLIC "-//W3C//DTD SVG 1.1//EN" "http://www.w3.org/Graphics/SVG/1.1/DTD/svg11.dtd">
<svg version="1.1" id="icon-user" xmlns="http://www.w3.org/2000/svg" xmlns:xlink="http://www.w3.org/1999/xlink" viewBox="0 0 24 24">
  <path fill-rule="evenodd" d="M12 5a3.5 3.5 0 1 0 0 7 3.5 3.5 0 0 0 0-7zm3.537 7.712a5.5 5.5 0 1 0-7.075 0c-2.912 1.227-5.047 3.926-5.454 7.163a1 1 0 0 0 1.984.25C5.425 16.678 8.392 14 12 14c3.607 0 6.575 2.678 7.008 6.125a1 1 0 1 0 1.984-.25c-.407-3.237-2.542-5.936-5.455-7.163z" clip-rule="evenodd" />
</svg>
